<svg width="900" height="900" viewBox="0 0 900 900" fill="none" xmlns="http://www.w3.org/2000/svg"><rect width="900" height="900" rx="28" fill="#F0F0F0"/><path d="M298 172h304l70 112-69 48v376H297V332l-69-48 70-112Z" fill="#8E2537" stroke="#222" stroke-width="12"/><path d="M374 174c15 48 137 48 152 0" stroke="#fff" stroke-width="10"/><path d="M450 230v470M350 230v470M550 230v470M300 330h300M300 440h300M300 550h300M300 660h300" stroke="#1E3A5F" stroke-width="16" opacity=".85"/><path d="M400 230v470M500 230v470M300 385h300M300 495h300M300 605h300" stroke="#F7F7F7" stroke-width="7" opacity=".9"/></svg>
