<svg width="900" height="900" viewBox="0 0 900 900" fill="none" xmlns="http://www.w3.org/2000/svg"><rect width="900" height="900" rx="28" fill="#F0F0F0"/><path d="M284 210h332l86 92-82 84-42-37v349H322V349l-42 37-82-84 86-92Z" fill="#E35D2F" stroke="#222" stroke-width="12"/><path d="M284 210h96l-58 139-42 37-82-84 86-92ZM616 210h-96l58 139 42 37 82-84-86-92Z" fill="#111"/><path d="M374 214c20 50 132 50 152 0" stroke="#111" stroke-width="12"/><path d="M372 260v400M430 260v400M488 260v400M546 260v400" stroke="#111" stroke-width="8" opacity=".55"/></svg>
